<svg width="33" height="32" viewBox="0 0 33 32" fill="none" xmlns="http://www.w3.org/2000/svg">
<g id="cart">
<path id="Vector" d="M11.5 28C12.6046 28 13.5 27.1046 13.5 26C13.5 24.8954 12.6046 24 11.5 24C10.3954 24 9.5 24.8954 9.5 26C9.5 27.1046 10.3954 28 11.5 28Z" fill="#E3CAA5"/>
<path id="Vector_2" d="M25.5 28C26.6046 28 27.5 27.1046 27.5 26C27.5 24.8954 26.6046 24 25.5 24C24.3954 24 23.5 24.8954 23.5 26C23.5 27.1046 24.3954 28 25.5 28Z" fill="#E3CAA5"/>
<path id="Vector_3" d="M29.05 7.54875C28.9095 7.37691 28.7325 7.2385 28.5319 7.14358C28.3312 7.04867 28.112 6.99962 27.89 7H8.86812L8.485 4.82625C8.44415 4.59471 8.32301 4.38496 8.14288 4.23385C7.96274 4.08275 7.73512 3.99995 7.5 4H3.5C3.23478 4 2.98043 4.10536 2.79289 4.29289C2.60536 4.48043 2.5 4.73478 2.5 5C2.5 5.26522 2.60536 5.51957 2.79289 5.70711C2.98043 5.89464 3.23478 6 3.5 6H6.66125L9.515 22.1737C9.55585 22.4053 9.67699 22.615 9.85712 22.7661C10.0373 22.9172 10.2649 23 10.5 23H26.5C26.7652 23 27.0196 22.8946 27.2071 22.7071C27.3946 22.5196 27.5 22.2652 27.5 22C27.5 21.7348 27.3946 21.4804 27.2071 21.2929C27.0196 21.1054 26.7652 21 26.5 21H11.3387L10.9862 19H26.09C26.4368 18.9996 26.7728 18.8793 27.0411 18.6596C27.3094 18.4399 27.4936 18.1343 27.5625 17.7944L29.3625 8.79438C29.4059 8.57656 29.4003 8.35184 29.3463 8.13643C29.2923 7.92102 29.1911 7.72029 29.05 7.54875Z" fill="#E3CAA5"/>
</g>
</svg>
