<svg width="32" height="32" viewBox="0 0 29 32" fill="none" xmlns="http://www.w3.org/2000/svg">
<path id="Vector" d="M14.0646 0.15094C6.33333 0.15094 0.0645752 7.4316 0.0645752 16.4033C0.0645752 23.5849 4.07708 29.6698 9.63958 31.8208C9.7176 31.8399 9.79723 31.8494 9.87708 31.8491C10.3958 31.8491 10.5958 31.4174 10.5958 31.0424C10.5958 30.6533 10.5833 29.6344 10.5771 28.2759C10.114 28.3988 9.64022 28.4629 9.16458 28.467C6.47083 28.467 5.85833 26.0967 5.85833 26.0967C5.22083 24.2217 4.30208 23.7193 4.30208 23.7193C3.08333 22.75 4.29583 22.7217 4.38958 22.7217H4.39583C5.80208 22.8632 6.53958 24.4057 6.53958 24.4057C7.23958 25.7924 8.17708 26.1816 9.01458 26.1816C9.56835 26.1691 10.1136 26.0244 10.6146 25.7571C10.7396 24.7099 11.1021 23.9953 11.5021 23.5849C8.39583 23.1745 5.12708 21.7807 5.12708 15.5542C5.12708 13.7783 5.67083 12.3278 6.56458 11.1958C6.42083 10.7854 5.93958 9.12971 6.70208 6.89386C6.80435 6.86616 6.90948 6.85426 7.01458 6.85849C7.52082 6.85849 8.66458 7.07783 10.5521 8.56367C12.8455 7.83724 15.2711 7.83724 17.5646 8.56367C19.4521 7.07783 20.5958 6.85849 21.1021 6.85849C21.2072 6.85426 21.3123 6.86616 21.4146 6.89386C22.1771 9.12971 21.6958 10.7854 21.5521 11.1958C22.4458 12.3349 22.9896 13.7854 22.9896 15.5542C22.9896 21.7948 19.7146 23.1674 16.5958 23.5708C17.0958 24.0731 17.5458 25.0637 17.5458 26.5778C17.5458 28.75 17.5271 30.5047 17.5271 31.0354C17.5271 31.4174 17.7208 31.8491 18.2396 31.8491C18.3235 31.8495 18.4073 31.84 18.4896 31.8208C24.0583 29.6698 28.0646 23.5778 28.0646 16.4033C28.0646 7.4316 21.7958 0.15094 14.0646 0.15094Z" fill="#E3CAA5"/>
</svg>
