<svg width="32" height="32" viewBox="0 0 33 32" fill="none" xmlns="http://www.w3.org/2000/svg">
<path id="Path" d="M29.6096 7.96292L29.6296 9.0091C29.6296 19.6922 23.027 32 10.9515 32C7.24523 32 3.79552 30.6626 0.889191 28.3692C1.40252 28.443 1.92572 28.484 2.45572 28.484C5.5321 28.484 8.3618 27.1917 10.6082 25.0255C7.7352 24.9599 5.31206 22.6214 4.47551 19.4132C4.87876 19.5076 5.28541 19.5528 5.71202 19.5528C6.31197 19.5528 6.89186 19.4584 7.44181 19.2738C4.43878 18.5271 2.1757 15.2656 2.1757 11.3518V11.2492C3.06225 11.8564 4.07214 12.2174 5.14869 12.2626C3.38887 10.8144 2.22899 8.34053 2.22899 5.53844C2.22899 4.05744 2.55232 2.67077 3.11554 1.47695C6.35188 6.36721 11.1914 9.5836 16.6475 9.92005C16.5341 9.32921 16.4775 8.70976 16.4775 8.07804C16.4775 3.61856 19.4172 0 23.0435 0C24.93 0 26.6365 0.980453 27.8363 2.55174C29.3295 2.18655 30.7361 1.5138 32.0059 0.590701C31.516 2.47792 30.4761 4.06149 29.1196 5.06245C30.4428 4.8696 31.7126 4.43059 32.8892 3.79063C32.0093 5.407 30.8928 6.83064 29.6096 7.96292Z" fill="#E3CAA5"/>
</svg>
